<?xml version="1.0" encoding="UTF-8" standalone="no"?>
<svg
   width="192"
   height="64"
   version="1.1"
   id="svg3"
   sodipodi:docname="button_rectangle_line_pressed.svg"
   inkscape:export-filename="button_rectangle_line_pressed.png"
   inkscape:export-xdpi="192"
   inkscape:export-ydpi="192"
   inkscape:version="1.4.2 (f4327f4, 2025-05-13)"
   xmlns:inkscape="http://www.inkscape.org/namespaces/inkscape"
   xmlns:sodipodi="http://sodipodi.sourceforge.net/DTD/sodipodi-0.dtd"
   xmlns="http://www.w3.org/2000/svg"
   xmlns:svg="http://www.w3.org/2000/svg">
  <sodipodi:namedview
     id="namedview3"
     pagecolor="#ffffff"
     bordercolor="#000000"
     borderopacity="0.25"
     inkscape:showpageshadow="2"
     inkscape:pageopacity="0.0"
     inkscape:pagecheckerboard="0"
     inkscape:deskcolor="#d1d1d1"
     inkscape:zoom="3.2648446"
     inkscape:cx="56.357966"
     inkscape:cy="45.484554"
     inkscape:window-width="1920"
     inkscape:window-height="991"
     inkscape:window-x="-9"
     inkscape:window-y="-9"
     inkscape:window-maximized="1"
     inkscape:current-layer="g3" />
  <defs
     id="defs1" />
  <g
     id="g3">
    <path
       stroke="none"
       fill="#9696A3"
       d="M186.5 2.05 L6 2 5.9 2 5.4 2.05 Q2 2.3 2 5.95 L2 58 Q2 62 6 62 L186 62 Q190 62 190 58 L190 5.95 Q190 2.25 186.5 2.05 M0 58.25 L0 5.95 Q0.05 0 6 0 L186 0 Q192 0 192 5.95 L192 58.25 Q191.85 64 186 64 L6 64 Q0.15 64 0 58.25"
       id="path1" />
    <path
       stroke="none"
       fill="#FFFFFF"
       d="M186.5 2.05 Q190 2.25 190 5.95 L190 58 Q190 62 186 62 L6 62 Q2 62 2 58 L2 5.95 Q2 2.3 5.4 2.05 L5.9 2 6 2 186.5 2.05 M186.4 4.05 L6.1 4 5.6 4.05 5.55 4.05 Q4 4.2 4 5.95 L4 58 Q4 60 6 60 L186 60 Q188 60 188 58 L188 5.95 Q188 4.2 186.4 4.05 M6.3 6 L186 6.05 186 58 6 58 6 6.05 6.3 6"
       id="path2"
       style="fill:#c6c6c6;fill-opacity:1" />
    <path
       stroke="none"
       fill="#DADCE7"
       d="M6.3 6 L6 6.05 6 58 186 58 186 6.05 6.3 6 M186.4 4.05 Q188 4.2 188 5.95 L188 58 Q188 60 186 60 L6 60 Q4 60 4 58 L4 5.95 Q4 4.2 5.55 4.05 L5.6 4.05 6.1 4 186.4 4.05"
       id="path3"
       style="fill:#a1a7c2;fill-opacity:1" />
  </g>
</svg>
