<?xml version="1.0" encoding="UTF-8" standalone="no"?>
<svg
   width="32"
   height="32"
   version="1.1"
   id="svg5"
   sodipodi:docname="check_square_grey_checkmark.svg"
   inkscape:export-filename="check_square_grey_checkmark.png"
   inkscape:export-xdpi="96"
   inkscape:export-ydpi="96"
   inkscape:version="1.4.2 (f4327f4, 2025-05-13)"
   xmlns:inkscape="http://www.inkscape.org/namespaces/inkscape"
   xmlns:sodipodi="http://sodipodi.sourceforge.net/DTD/sodipodi-0.dtd"
   xmlns="http://www.w3.org/2000/svg"
   xmlns:svg="http://www.w3.org/2000/svg">
  <sodipodi:namedview
     id="namedview5"
     pagecolor="#ffffff"
     bordercolor="#000000"
     borderopacity="0.25"
     inkscape:showpageshadow="2"
     inkscape:pageopacity="0.0"
     inkscape:pagecheckerboard="0"
     inkscape:deskcolor="#d1d1d1"
     inkscape:zoom="9.6785241"
     inkscape:cx="11.158726"
     inkscape:cy="14.981623"
     inkscape:window-width="1128"
     inkscape:window-height="682"
     inkscape:window-x="-6"
     inkscape:window-y="-6"
     inkscape:window-maximized="1"
     inkscape:current-layer="g5" />
  <defs
     id="defs1" />
  <g
     id="g5">
    <path
       stroke="none"
       fill="#9696a3"
       d="m 6,0 h 20 c 4,0 6,2 6,6 v 20 c 0,4 -2,6 -6,6 H 6 C 2,32 0,30 0,26 V 6 C 0,2 2,0 6,0"
       id="path1"
       sodipodi:nodetypes="csssssssc" />
    <path
       stroke="none"
       fill="#ffffff"
       d="m 29.690035,25.778597 c 0,2.607625 -1.303813,3.911438 -3.911438,3.911438 H 6.2214033 c -2.6076258,0 -3.9114387,-1.303813 -3.9114387,-3.911438 V 6.2214033 c 0,-2.6076258 1.3038129,-3.9114387 3.9114387,-3.9114387 H 25.778597 c 2.607625,0 3.911438,1.3038129 3.911438,3.9114387 V 25.778597"
       id="path2"
       style="stroke-width:0.977859"
       sodipodi:nodetypes="csssssssc" />
    <path
       stroke="none"
       fill="#dadce7"
       d="M 27.380071,6.5166077 V 25.483392 q 0,1.896679 -1.896679,1.896679 H 6.5166077 q -1.8966785,0 -1.8966785,-1.896679 V 6.5166077 q 0,-1.8966785 1.8966785,-1.8966785 H 25.483392 q 1.896679,0 1.896679,1.8966785"
       id="path3"
       style="stroke-width:0.94834" />
    <path
       stroke="none"
       fill="#36bdf7"
       d="m 6.8628077,18.11714 q -0.5978736,-0.777234 -0.4782989,-1.733832 0.059787,-1.016385 0.8370222,-1.614257 0.7772349,-0.597874 1.7936182,-0.478298 0.9565981,0.05979 1.5544698,0.837021 l 2.750216,3.407876 7.891925,-9.6855423 q 0.65766,-0.7772349 1.614257,-0.8968107 0.956596,-0.1195757 1.733832,0.5380862 0.777235,0.6576613 0.896809,1.6142568 0.119576,0.956597 -0.538086,1.733833 l -9.745331,11.95746 q -0.478298,0.597873 -1.135958,0.837022 H 12.662174 Q 11.944729,24.394806 11.46643,23.796933 L 6.8628077,18.11714"
       id="path4"
       style="stroke:#146587;stroke-width:2.089;stroke-dasharray:none;stroke-opacity:1" />
  </g>
</svg>
